PathFileType	4	(X/Y/Z)	C:\Users\dbl\Desktop\LZH\BX\Trimmed_bx_n_0_1801.trc
DataRate	CameraRate	NumFrames	NumMarkers	Units	OrigDataRate	OrigDataStartFrame	OrigNumFrames
50.00	50.00	       4	43	mm	50.00	624	       997
Frame#	Time	Top.Head			R.Acromium			L.Acromium			Sternum			R.ASIS			L.ASIS			V.Sacral			R.Thigh.Upper			R.Thigh.Front			R.Thigh.Rear			R.Knee.Lat			R.Knee.Med			R.Shank.Upper			R.Shank.Front			R.Shank.Rear			R.Ankle.Lat			R.Midfoot.Lat			R.Toe.Lat			R.Toe.Tip			R.Toe.Med			R.Ankle.Med			R.Midfoot.Sup			R.Heel			L.Thigh.Upper			L.Thigh.Front			L.Thigh.Rear			L.Knee.Lat			L.Knee.Med			L.Shank.Upper			L.Shank.Front			L.Shank.Rear			L.Ankle.Lat			L.Midfoot.Lat			L.Toe.Lat			L.Toe.Tip			L.Toe.Med			L.Ankle.Med			L.Midfoot.Sup			L.Heel			origin1 front left			origin2 front right			origin 3 back right			origin 4 back leftt			
		X1	Y1	Z1	X2	Y2	Z2	X3	Y3	Z3	X4	Y4	Z4	X5	Y5	Z5	X6	Y6	Z6	X7	Y7	Z7	X8	Y8	Z8	X9	Y9	Z9	X10	Y10	Z10	X11	Y11	Z11	X12	Y12	Z12	X13	Y13	Z13	X14	Y14	Z14	X15	Y15	Z15	X16	Y16	Z16	X17	Y17	Z17	X18	Y18	Z18	X19	Y19	Z19	X20	Y20	Z20	X21	Y21	Z21	X22	Y22	Z22	X23	Y23	Z23	X24	Y24	Z24	X25	Y25	Z25	X26	Y26	Z26	X27	Y27	Z27	X28	Y28	Z28	X29	Y29	Z29	X30	Y30	Z30	X31	Y31	Z31	X32	Y32	Z32	X33	Y33	Z33	X34	Y34	Z34	X35	Y35	Z35	X36	Y36	Z36	X37	Y37	Z37	X38	Y38	Z38	X39	Y39	Z39	X40	Y40	Z40	X41	Y41	Z41	X42	Y42	Z42	X43	Y43	Z43	

624	12.460	-624.89612	230.87683	1829.38086	-585.85992	46.58193	1539.90088	-577.29407	403.71136	1535.45874	-488.20966	223.42831	1351.33643	-556.65228	101.47350	1037.77734	-528.86438	328.30191	1041.95959	-742.04419	231.17175	1060.61926	-638.22198	58.85449	838.91925	-543.88861	106.65039	820.07465	-638.93115	75.74174	729.17200	-667.10229	102.88002	608.31799	-630.91858	209.42670	567.46387	-694.23450	108.52866	539.91998	-611.56891	149.09750	527.16925	-703.45740	102.10351	489.08344	-697.90057	137.36319	212.89648	-626.44415	73.38940	163.33926	-579.28265	49.74804	159.96281	-503.63571	91.84372	161.49159	-542.77905	142.61478	164.87651	-646.03387	210.05276	219.67853	-604.72174	184.00468	170.85094	-728.36639	206.18161	170.82961	-620.16541	417.79272	862.47949	-537.17065	369.46106	821.17621	-644.23322	406.20099	748.12268	-657.39734	390.41034	611.12329	-634.26477	282.39941	570.60583	-670.44708	392.39810	562.94208	-608.14917	343.22321	540.58533	-724.13556	393.74783	498.61050	-682.00769	404.28329	217.17410	-589.28284	461.52768	164.04486	-551.45978	474.28653	159.27223	-490.87201	427.90714	167.61639	-526.48022	385.66235	177.18463	-641.65985	316.44788	207.46732	-593.34338	341.33554	169.41270	-731.75183	334.19424	162.72855	-443.82239	448.54553	146.76312	-450.37540	75.07114	143.20570	-806.28534	82.52876	140.80658	-799.93854	456.46945	144.76122	
625	12.480	-628.58887	232.20091	1829.45178	-588.79626	47.57165	1540.12256	-579.82385	404.73828	1535.31079	-489.18121	224.17792	1352.27710	-554.50525	101.95859	1037.95825	-526.63275	328.88135	1041.99231	-739.68701	232.09534	1059.90833	-636.29559	59.39863	838.87360	-541.97131	107.23180	819.70172	-637.61200	76.32596	729.16968	-666.76123	103.26335	608.45258	-631.04126	209.70255	567.37958	-694.23456	108.82948	540.15131	-611.72321	149.39099	527.16296	-703.58765	102.40774	489.14078	-697.85345	137.34145	213.04004	-626.45447	73.41438	163.30785	-579.28119	49.72060	160.03586	-503.64182	91.86481	161.52917	-542.77124	142.58771	164.89539	-645.98712	210.09375	219.73798	-604.71942	183.95964	170.85817	-728.33917	206.21736	170.79723	-618.05188	417.95752	861.99097	-535.25269	369.78259	820.56140	-642.96136	406.59982	747.91559	-657.16766	390.77737	611.15521	-634.14978	282.74063	570.44733	-670.57660	392.61276	562.99402	-608.33484	343.46652	540.30084	-724.26056	393.95792	498.73395	-682.13123	404.32352	217.13553	-589.33783	461.60892	163.96371	-551.52301	474.36740	159.15843	-490.89368	427.94537	167.56366	-526.49512	385.82907	177.18489	-641.51477	316.21472	207.69186	-593.52496	341.44501	169.25087	-731.70758	334.08270	162.72952	-443.84793	448.50787	146.82434	-450.38092	75.07941	143.19067	-806.32837	82.54826	140.84592	-799.89594	456.48401	144.76299	
626	12.500	-632.14478	233.52823	1829.39746	-591.60236	48.53226	1540.24658	-582.12463	405.71655	1535.08875	-490.06299	224.84523	1353.13501	-552.46643	102.51327	1038.09290	-524.53900	329.55780	1042.03210	-737.48706	232.90738	1059.14893	-634.33691	59.92327	838.84003	-540.03931	107.89893	819.36456	-636.26538	76.86333	729.19861	-666.38953	103.79237	608.50458	-631.13477	210.02026	567.30060	-694.25269	109.18126	540.32440	-611.87207	149.73024	527.14734	-703.69843	102.72112	489.21307	-697.85059	137.38004	213.13373	-626.46887	73.43004	163.27293	-579.29352	49.68332	160.09853	-503.65292	91.88401	161.55003	-542.76331	142.57652	164.91069	-645.96979	210.12547	219.78490	-604.68396	183.95317	170.86707	-728.35071	206.23709	170.78308	-616.06708	418.12823	861.53516	-533.42828	370.12396	819.97693	-641.73120	407.04630	747.72845	-656.88678	391.09863	611.16364	-633.92407	283.05798	570.26074	-670.56702	392.87610	563.08228	-608.35822	343.73447	540.15747	-724.31036	394.23334	498.86282	-682.23322	404.36359	217.09148	-589.40637	461.69022	163.87006	-551.61163	474.49658	158.97681	-490.89944	427.96484	167.53329	-526.52106	385.96643	177.23114	-641.39813	316.03461	207.87930	-593.61377	341.48315	169.18045	-731.64093	333.98959	162.69823	-443.85236	448.48190	146.83575	-450.38776	75.06208	143.15472	-806.37366	82.56284	140.88513	-799.90173	456.47391	144.73569	
627	12.520	-635.55682	234.82924	1829.21545	-594.23987	49.45056	1540.25781	-584.20343	406.67844	1534.82886	-490.89084	225.46536	1353.89209	-550.51825	103.10435	1038.18811	-522.61133	330.34552	1042.06458	-735.45691	233.59871	1058.37598	-632.35358	60.45848	838.77173	-538.16156	108.67198	819.05536	-634.93738	77.39671	729.25885	-666.05054	104.43818	608.46460	-631.22699	210.38931	567.18921	-694.30841	109.55497	540.46796	-611.99200	150.09656	527.12097	-703.84937	103.06538	489.32568	-697.92017	137.49930	213.14340	-626.47260	73.41225	163.27612	-579.32056	49.65411	160.12878	-503.66742	91.90203	161.55373	-542.76373	142.58186	164.91724	-645.98566	210.17198	219.83006	-604.64679	183.96605	170.89211	-728.39227	206.24814	170.77034	-614.22003	418.32831	861.13702	-531.70612	370.51666	819.47345	-640.50122	407.46118	747.59265	-656.46991	391.42987	611.15057	-633.49628	283.33609	570.13562	-670.33600	393.17004	563.16974	-608.18640	344.03162	540.10913	-724.21741	394.53583	498.95963	-682.26086	404.39920	217.06920	-589.47552	461.78003	163.77856	-551.71014	474.66248	158.78247	-490.86469	427.97708	167.51694	-526.56134	386.07645	177.30266	-641.33704	316.03284	207.91910	-593.52924	341.42865	169.24846	-731.55841	333.93314	162.65276	-443.83316	448.48288	146.80405	-450.39279	75.03060	143.12975	-806.39508	82.55643	140.90726	-799.94574	456.44153	144.68456	
